<svg width="170" height="80" viewBox="0 0 170 80" fill="none" xmlns="http://www.w3.org/2000/svg">
<path d="M88.5691 36.4314L74.6457 52.8227L76.7042 72.7081C77.0169 73.8425 76.9617 75.0298 76.5458 76.1216C76.1298 77.2134 75.3715 78.1611 74.3655 78.8463C73.3596 79.5316 72.1507 79.9239 70.89 79.9742C69.6293 80.0246 68.3727 79.7307 67.2774 79.1294L45.2496 66.4726L26.2806 79.1294C25.2124 79.7307 23.9691 80.0246 22.7062 79.9742C21.4432 79.9239 20.2166 79.5316 19.1797 78.8463C18.1429 78.1611 17.3418 77.2134 16.8765 76.1216C16.4113 75.0298 16.3026 73.8425 16.5641 72.7081L21.4912 51.0295L3.05031 36.4314C2.07518 35.6694 1.3598 34.6635 0.993873 33.5398C0.627947 32.4161 0.627768 31.2247 0.993356 30.1149C1.35894 29.0051 2.07403 28.0265 3.04893 27.3016C4.02383 26.5767 5.21516 26.1379 6.47351 26.0402L30.3035 24.1331L39.1597 3.63211C39.6221 2.55639 40.4222 1.63751 41.4593 0.991194C42.4963 0.344873 43.7241 0 44.9878 0C46.2515 0 47.4948 0.344873 48.5611 0.991194C49.6273 1.63751 50.4689 2.55639 50.9798 3.63211L60.7891 24.1331L84.6971 26.0402C85.9599 26.1379 87.171 26.5767 88.1786 27.3016C89.1862 28.0265 89.9455 29.0051 90.3611 30.1149C90.7768 31.2247 90.8304 32.4161 90.5151 33.5398C90.1999 34.6635 89.5299 35.6694 88.5892 36.4314H88.5691Z" fill="#D2CBEF"/>
<ellipse cx="22.4972" cy="17.5" rx="22.4972" ry="17.5" transform="matrix(1 8.19907e-09 0.0226521 0.999747 21.6089 22.2267)" fill="#D9D9D9" fill-opacity="0.1"/>
<path d="M50.4478 46.4851C50.0994 47.4285 49.4722 48.2386 48.6479 48.8096C47.8237 49.3806 46.8407 49.686 45.8272 49.686C44.8138 49.686 43.8169 49.3806 42.9668 48.8096C42.1167 48.2386 40.5612 46.1643 40.1701 45.2209C39.9077 44.6311 39.9488 46.4041 40.2101 46.99C40.694 48.0845 41.4876 49.0191 42.491 49.6764C43.4945 50.3336 44.6632 50.6843 45.8503 50.6843C47.0375 50.6843 48.1903 50.3336 49.164 49.6764C50.1376 49.0191 50.8888 48.0845 51.3232 46.99C51.5569 46.4041 50.6843 45.8902 50.4478 46.4851Z" fill="#333333"/>
<ellipse cx="3.49894" cy="3.5" rx="3.49894" ry="3.5" transform="matrix(1 1.00486e-09 0.0227966 0.999747 53.7891 30.2246)" fill="#333333"/>
<ellipse cx="0.999697" cy="0.999922" rx="0.999697" ry="0.999922" transform="matrix(1 -6.21304e-09 0.0227966 0.999747 54.834 32.224)" fill="#C8B8AE"/>
<ellipse cx="3.49894" cy="3.5" rx="3.49894" ry="3.5" transform="matrix(1 1.00486e-09 0.0227966 0.999747 27.7886 30.2246)" fill="#333333"/>
<ellipse cx="0.999697" cy="0.999922" rx="0.999697" ry="0.999922" transform="matrix(1 -6.21304e-09 0.0227966 0.999747 31.8335 32.224)" fill="#C8B8AE"/>
<path d="M45.4463 37.2228L45.4486 37.3228" stroke="#A77136" stroke-linecap="round"/>
<path d="M43.8027 41.9718L44.054 41.9718" stroke="#A77136" stroke-linecap="round"/>
<path d="M51.5384 41.3218L51.5361 41.2218" stroke="#A77136" stroke-linecap="round"/>
<path d="M48.0581 42.2217L48.1586 42.2217" stroke="#A77136" stroke-linecap="round"/>
<path d="M38.0366 41.2218L38.1371 41.2218" stroke="#A77136" stroke-linecap="round"/>
<path d="M48.9463 37.2229L49.0468 37.2229" stroke="#A77136" stroke-linecap="round"/>
<path d="M41.9463 37.2228L42.2478 37.2228" stroke="#A77136" stroke-linecap="round"/>
<path d="M42.0132 40.222L42.1137 40.222" stroke="#A77136" stroke-opacity="0.6" stroke-linecap="round"/>
<path d="M39.9912 39.2224L40.0917 39.2224" stroke="#A77136" stroke-linecap="round"/>
<path d="M37.9912 39.2224L38.0013 39.2224" stroke="#A77136" stroke-opacity="0.3" stroke-linecap="round"/>
<path d="M43.9238 36.2231L43.9339 36.2231" stroke="#A77136" stroke-opacity="0.3" stroke-linecap="round"/>
<path d="M46.9238 36.2231L46.9339 36.2231" stroke="#A77136" stroke-opacity="0.3" stroke-linecap="round"/>
<path d="M38.9463 37.2228L39.0468 37.2228" stroke="#A77136" stroke-linecap="round"/>
<path d="M40.0586 42.2217L40.0661 42.2217" stroke="#A77136" stroke-opacity="0.6" stroke-linecap="round"/>
<path d="M51.9907 39.2224L52.0096 39.2224" stroke="#A77136" stroke-linecap="round"/>
<path d="M49.9912 39.2224L50.0917 39.2224" stroke="#A77136" stroke-linecap="round"/>
<path d="M46.0361 41.2218L46.2371 41.2218" stroke="#A77136" stroke-opacity="0.7" stroke-linecap="round"/>
<path d="M47.9912 39.2224L48.1922 39.2224" stroke="#A77136" stroke-opacity="0.5" stroke-linecap="round"/>
<path d="M43.9912 39.2224L44.1922 39.2224" stroke="#A77136" stroke-linecap="round"/>
<path d="M81.4141 45.2793C81.4141 47.1543 80.4385 48.1797 78.4873 48.3555V48.4521C79.5068 48.4756 80.3096 48.7539 80.8955 49.2871C81.4814 49.8203 81.7744 50.5908 81.7744 51.5986C81.7744 52.0205 81.7246 52.4365 81.625 52.8467C81.5254 53.251 81.3086 53.6113 80.9746 53.9277C80.6465 54.2441 80.1689 54.502 79.542 54.7012C78.9209 54.9004 78.083 55 77.0283 55H67.3604V51.7393C67.876 51.7393 68.2451 51.6719 68.4678 51.5371C68.6904 51.3965 68.8018 51.1357 68.8018 50.7549V46.3076C68.8018 45.9209 68.6904 45.6602 68.4678 45.5254C68.2451 45.3848 67.876 45.3145 67.3604 45.3145V42.0537H77.6348C78.4434 42.0537 79.0967 42.1445 79.5947 42.3262C80.0928 42.5078 80.4766 42.748 80.7461 43.0469C81.0156 43.3457 81.1943 43.6914 81.2822 44.084C81.3701 44.4707 81.4141 44.8691 81.4141 45.2793ZM75.2969 51.7393C75.7891 51.7393 76.1289 51.6455 76.3164 51.458C76.5039 51.2646 76.5977 50.9453 76.5977 50.5C76.5977 50.0547 76.5039 49.7324 76.3164 49.5332C76.1289 49.3281 75.7891 49.2256 75.2969 49.2256H73.9873V51.7393H75.2969ZM73.9873 47.6699H75.3145C75.6777 47.6699 75.9385 47.5557 76.0967 47.3271C76.2607 47.0928 76.3428 46.8115 76.3428 46.4834C76.3428 46.1729 76.2607 45.9004 76.0967 45.666C75.9385 45.4316 75.6777 45.3145 75.3145 45.3145H73.9873V47.6699ZM87.1885 46.5361C86.8896 46.5361 86.6318 46.5596 86.415 46.6064C86.2041 46.6475 86.0225 46.6973 85.8701 46.7559C85.7178 46.8145 85.5918 46.8818 85.4922 46.958C85.3926 47.0283 85.3047 47.0928 85.2285 47.1514L85.3164 47.2393C85.4277 47.1807 85.5479 47.1221 85.6768 47.0635C85.8115 47.0049 85.9814 46.9756 86.1865 46.9756C86.5322 46.9756 86.8311 47.0898 87.083 47.3184C87.335 47.541 87.4609 47.8984 87.4609 48.3906C87.4609 48.8594 87.2676 49.2373 86.8809 49.5244C86.5 49.8057 85.9873 49.9463 85.3428 49.9463C84.7275 49.9463 84.2354 49.7705 83.8662 49.4189C83.5029 49.0615 83.3213 48.5576 83.3213 47.9072C83.3213 47.5498 83.4209 47.1953 83.6201 46.8438C83.8193 46.4863 84.127 46.167 84.543 45.8857C84.9648 45.6045 85.498 45.373 86.1426 45.1914C86.793 45.0098 87.5752 44.9189 88.4893 44.9189C89.5791 44.9189 90.4697 45.0215 91.1611 45.2266C91.8525 45.4316 92.3887 45.6953 92.7695 46.0176C93.1562 46.3398 93.4199 46.7061 93.5605 47.1162C93.707 47.5264 93.7803 47.9395 93.7803 48.3555V51.792C93.7803 52.3252 93.7979 52.6885 93.833 52.8818C93.8682 53.0693 94 53.1631 94.2285 53.1631C94.4102 53.1631 94.5361 53.0781 94.6064 52.9082C94.6826 52.7324 94.7207 52.4336 94.7207 52.0117V50.9131H95.7227V52.0293C95.7227 52.5566 95.6787 53.0254 95.5908 53.4355C95.5029 53.8398 95.3359 54.1885 95.0898 54.4814C94.8438 54.7686 94.5098 54.9854 94.0879 55.1318C93.666 55.2842 93.127 55.3604 92.4707 55.3604C91.8789 55.3604 91.3867 55.2959 90.9941 55.167C90.6074 55.0439 90.2998 54.8887 90.0713 54.7012C89.8428 54.5137 89.6787 54.3203 89.5791 54.1211C89.4854 53.916 89.4385 53.7344 89.4385 53.5762H89.2979C89.2627 53.8164 89.1602 54.0449 88.9902 54.2617C88.8262 54.4785 88.5947 54.6719 88.2959 54.8418C88.0029 55.0059 87.6484 55.1377 87.2324 55.2373C86.8223 55.3428 86.3535 55.3955 85.8262 55.3955C85.3223 55.3955 84.8623 55.3457 84.4463 55.2461C84.0361 55.1523 83.6846 55.0029 83.3916 54.7979C83.1045 54.5869 82.8789 54.3174 82.7148 53.9893C82.5566 53.6553 82.4775 53.2598 82.4775 52.8027C82.4775 52.2402 82.6357 51.7979 82.9521 51.4756C83.2686 51.1475 83.667 50.8896 84.1475 50.7021C84.6279 50.5088 85.1494 50.3535 85.7119 50.2363C86.2803 50.1133 86.8047 49.9668 87.2852 49.7969C87.7656 49.627 88.1641 49.4072 88.4805 49.1377C88.7969 48.8682 88.9551 48.4873 88.9551 47.9951C88.9551 47.5557 88.8174 47.2041 88.542 46.9404C88.2666 46.6709 87.8154 46.5361 87.1885 46.5361ZM88.9551 50.3418C88.8262 50.5293 88.665 50.6816 88.4717 50.7988C88.2783 50.9102 88.0908 51.0215 87.9092 51.1328C87.7334 51.2383 87.5781 51.3672 87.4434 51.5195C87.3145 51.666 87.25 51.8652 87.25 52.1172C87.25 52.3105 87.3027 52.4863 87.4082 52.6445C87.5137 52.7969 87.7188 52.873 88.0234 52.873C88.2988 52.873 88.5215 52.7676 88.6914 52.5566C88.8672 52.3398 88.9551 52.0381 88.9551 51.6514V50.3418ZM101.937 52.1348C102.03 52.293 102.212 52.4189 102.481 52.5127C102.751 52.6006 103 52.6445 103.229 52.6445C103.492 52.6445 103.706 52.5801 103.87 52.4512C104.034 52.3164 104.163 52.1377 104.257 51.915C104.356 51.6924 104.424 51.4346 104.459 51.1416C104.494 50.8486 104.512 50.5439 104.512 50.2275C104.512 49.917 104.494 49.6211 104.459 49.3398C104.424 49.0586 104.356 48.8125 104.257 48.6016C104.163 48.3906 104.031 48.2266 103.861 48.1094C103.691 47.9863 103.475 47.9248 103.211 47.9248C102.947 47.9248 102.733 47.9863 102.569 48.1094C102.411 48.2266 102.282 48.3906 102.183 48.6016C102.089 48.8125 102.024 49.0586 101.989 49.3398C101.954 49.6211 101.937 49.917 101.937 50.2275V52.1348ZM105.232 45.0068C106.574 45.0068 107.623 45.4434 108.379 46.3164C109.135 47.1836 109.513 48.458 109.513 50.1396C109.513 51.8213 109.117 53.1016 108.326 53.9805C107.535 54.8535 106.448 55.29 105.065 55.29C104.573 55.29 104.14 55.2432 103.765 55.1494C103.396 55.0615 103.064 54.9473 102.771 54.8066C102.479 54.6602 102.212 54.4932 101.972 54.3057C101.731 54.1182 101.497 53.9307 101.269 53.7432H101.146L100.838 55H97.1113V46.3076C97.1113 45.9678 97.0029 45.7188 96.7861 45.5605C96.5693 45.3965 96.3232 45.3145 96.0479 45.3145H95.8545V42.0537H101.937V45.4023V47.0107H102.077C102.165 46.7588 102.285 46.5127 102.438 46.2725C102.596 46.0322 102.801 45.8184 103.053 45.6309C103.305 45.4434 103.609 45.2939 103.967 45.1826C104.33 45.0654 104.752 45.0068 105.232 45.0068ZM118.328 55.7207C118.129 56.1543 117.924 56.6172 117.713 57.1094C117.502 57.6016 117.224 58.0557 116.878 58.4717C116.538 58.8936 116.099 59.2422 115.56 59.5176C115.021 59.793 114.317 59.9307 113.45 59.9307C112.841 59.9307 112.308 59.8516 111.851 59.6934C111.394 59.541 111.016 59.333 110.717 59.0693C110.418 58.8057 110.195 58.501 110.049 58.1553C109.908 57.8154 109.838 57.4668 109.838 57.1094C109.838 56.4004 110.055 55.8408 110.488 55.4307C110.928 55.0264 111.473 54.8242 112.123 54.8242C112.504 54.8242 112.823 54.8799 113.081 54.9912C113.339 55.1025 113.55 55.2461 113.714 55.4219C113.878 55.5977 113.992 55.791 114.057 56.002C114.121 56.2129 114.153 56.4121 114.153 56.5996C114.153 57.0215 114.048 57.3438 113.837 57.5664C113.632 57.7891 113.383 57.9297 113.09 57.9883C113.113 58.0117 113.151 58.0293 113.204 58.041C113.274 58.0762 113.418 58.0938 113.635 58.0938C113.84 58.0938 114.021 58.041 114.18 57.9355C114.344 57.8359 114.49 57.71 114.619 57.5576C114.754 57.4111 114.868 57.25 114.962 57.0742C115.062 56.9043 115.141 56.7461 115.199 56.5996L115.217 56.5469L111.473 49.3311C111.414 49.1963 111.35 49.082 111.279 48.9883C111.215 48.8945 111.133 48.8184 111.033 48.7598C110.939 48.6953 110.819 48.6484 110.673 48.6191C110.532 48.5898 110.354 48.5752 110.137 48.5752V45.3145H117.194V48.5752C116.825 48.5752 116.582 48.6309 116.465 48.7422C116.354 48.8477 116.345 49.0146 116.438 49.2432L117.502 51.5107L118.53 49.2432C118.624 49.0381 118.612 48.877 118.495 48.7598C118.384 48.6367 118.144 48.5752 117.774 48.5752V45.3145H122.67V48.5752C122.236 48.5752 121.932 48.6367 121.756 48.7598C121.586 48.877 121.439 49.0674 121.316 49.3311L118.328 55.7207ZM79.3486 69.7559H76.4482C76.4014 69.457 76.2959 69.1787 76.1318 68.9209C75.9736 68.6631 75.7773 68.4404 75.543 68.2529C75.3086 68.0654 75.0479 67.9219 74.7607 67.8223C74.4736 67.7168 74.1777 67.6641 73.873 67.6641C73.5039 67.6641 73.2051 67.7344 72.9766 67.875C72.748 68.0156 72.6338 68.2119 72.6338 68.4639C72.6338 68.7041 72.7363 68.9004 72.9414 69.0527C73.1465 69.1992 73.416 69.3281 73.75 69.4395C74.084 69.5449 74.4648 69.6475 74.8926 69.7471C75.3203 69.8467 75.7539 69.9697 76.1934 70.1162C76.6387 70.2627 77.0752 70.4414 77.5029 70.6523C77.9307 70.8574 78.3115 71.124 78.6455 71.4521C78.9795 71.7744 79.249 72.1699 79.4541 72.6387C79.6592 73.1074 79.7617 73.6699 79.7617 74.3262C79.7617 75.0234 79.6123 75.6182 79.3135 76.1104C79.0146 76.6025 78.6133 77.0068 78.1094 77.3232C77.6055 77.6396 77.0254 77.8711 76.3691 78.0176C75.7129 78.1641 75.0332 78.2373 74.3301 78.2373C73.6445 78.2373 72.9883 78.1582 72.3613 78C71.7402 77.8418 71.1045 77.584 70.4541 77.2266V78H67.5537V73.21H70.4541C70.624 73.8955 70.9639 74.4375 71.4736 74.8359C71.9834 75.2285 72.5576 75.4248 73.1963 75.4248C73.624 75.4248 73.9434 75.3457 74.1543 75.1875C74.3652 75.0234 74.4707 74.8389 74.4707 74.6338C74.4707 74.3115 74.2949 74.0625 73.9434 73.8867C73.5977 73.7109 73.167 73.5557 72.6514 73.4209C72.1357 73.2803 71.5703 73.125 70.9551 72.9551C70.3457 72.7793 69.7832 72.5303 69.2676 72.208C68.752 71.8799 68.3184 71.4492 67.9668 70.916C67.6211 70.3828 67.4482 69.6855 67.4482 68.8242C67.4482 68.1855 67.5859 67.6201 67.8613 67.1279C68.1367 66.6357 68.5059 66.2227 68.9688 65.8887C69.4316 65.5488 69.9648 65.2939 70.5684 65.124C71.1777 64.9482 71.8193 64.8604 72.4932 64.8604C73.4248 64.8604 74.2246 64.9688 74.8926 65.1855C75.5605 65.4023 76.0791 65.6309 76.4482 65.8711V65.0537H79.3486V69.7559ZM90.1328 67.9189C90.9062 67.9189 91.5332 68.0332 92.0137 68.2617C92.5 68.4902 92.8779 68.7803 93.1475 69.1318C93.4229 69.4775 93.6104 69.8555 93.71 70.2656C93.8096 70.6699 93.8594 71.0508 93.8594 71.4082V73.8779C93.8594 74.1885 93.9121 74.4111 94.0176 74.5459C94.1289 74.6748 94.3398 74.7393 94.6504 74.7393H95.125V78H89.043V72.3838C89.043 72.1553 89.0137 71.9736 88.9551 71.8389C88.9023 71.6982 88.832 71.5928 88.7441 71.5225C88.6621 71.4463 88.5684 71.3965 88.4629 71.373C88.3574 71.3496 88.2549 71.3379 88.1553 71.3379C87.7744 71.3379 87.4902 71.4492 87.3027 71.6719C87.1152 71.8945 87.0215 72.2109 87.0215 72.6211V73.8779C87.0215 74.1885 87.0742 74.4111 87.1797 74.5459C87.291 74.6748 87.502 74.7393 87.8125 74.7393H88.4629V78H80.9395V74.7393H81.458C81.6982 74.7393 81.8799 74.6631 82.0029 74.5107C82.1318 74.3525 82.1963 74.165 82.1963 73.9482L82.1787 69.3076C82.1787 68.9678 82.0703 68.7188 81.8535 68.5605C81.6426 68.3965 81.3965 68.3145 81.1152 68.3145H80.9395V65.0537H87.0215V68.3145C87.0215 68.4258 86.9863 68.6191 86.916 68.8945C86.8457 69.1699 86.7139 69.4453 86.5205 69.7207L86.6963 69.8086C87.0127 69.2344 87.4375 68.7773 87.9707 68.4375C88.5039 68.0918 89.2246 67.9189 90.1328 67.9189ZM95.6611 73.1396C95.6611 72.2783 95.8105 71.5225 96.1094 70.8721C96.4082 70.2217 96.833 69.6797 97.3838 69.2461C97.9404 68.8066 98.6084 68.4756 99.3877 68.2529C100.167 68.0303 101.037 67.9189 101.998 67.9189C102.959 67.9189 103.829 68.0303 104.608 68.2529C105.388 68.4756 106.053 68.8066 106.604 69.2461C107.154 69.6797 107.579 70.2217 107.878 70.8721C108.183 71.5225 108.335 72.2783 108.335 73.1396C108.335 73.9893 108.183 74.7422 107.878 75.3984C107.579 76.0547 107.154 76.6055 106.604 77.0508C106.053 77.4902 105.388 77.8213 104.608 78.0439C103.829 78.2666 102.959 78.3779 101.998 78.3779C101.037 78.3779 100.167 78.2666 99.3877 78.0439C98.6084 77.8213 97.9404 77.4902 97.3838 77.0508C96.833 76.6055 96.4082 76.0547 96.1094 75.3984C95.8105 74.7422 95.6611 73.9893 95.6611 73.1396ZM100.662 73.1396C100.662 73.6318 100.683 74.0508 100.724 74.3965C100.771 74.7363 100.844 75.0117 100.943 75.2227C101.043 75.4277 101.178 75.5801 101.348 75.6797C101.518 75.7734 101.734 75.8203 101.998 75.8203C102.262 75.8203 102.476 75.7734 102.64 75.6797C102.81 75.5801 102.944 75.4277 103.044 75.2227C103.149 75.0117 103.223 74.7363 103.264 74.3965C103.305 74.0508 103.325 73.6318 103.325 73.1396C103.325 72.1553 103.231 71.4668 103.044 71.0742C102.862 70.6758 102.514 70.4766 101.998 70.4766C101.734 70.4766 101.518 70.5234 101.348 70.6172C101.178 70.7051 101.043 70.8545 100.943 71.0654C100.844 71.2705 100.771 71.5459 100.724 71.8916C100.683 72.2314 100.662 72.6475 100.662 73.1396ZM117.854 75.2139L116.799 78H112.202L110.031 72.3311C109.92 72.0557 109.785 71.8623 109.627 71.751C109.475 71.6338 109.223 71.5752 108.871 71.5752V68.3145H115.393V71.5752C115.117 71.5752 114.936 71.6279 114.848 71.7334C114.766 71.833 114.754 72.0029 114.812 72.2432L115.586 74.9414H115.718L116.544 72.2432C116.69 71.7979 116.497 71.5752 115.964 71.5752V68.3145H121.94V71.5752C121.665 71.5752 121.486 71.6279 121.404 71.7334C121.322 71.833 121.311 72.0029 121.369 72.2432L122.143 74.9414H122.266L123.092 72.2432C123.238 71.7979 123.048 71.5752 122.521 71.5752V68.3145H126.985V71.5752C126.733 71.5752 126.514 71.6338 126.326 71.751C126.139 71.8623 125.992 72.0557 125.887 72.3311L123.707 78H118.935L117.854 75.2139ZM132.549 73.7021C132.572 74.5752 132.736 75.1787 133.041 75.5127C133.352 75.8408 133.794 76.0049 134.368 76.0049C134.562 76.0049 134.749 75.9785 134.931 75.9258C135.118 75.8672 135.291 75.7764 135.449 75.6533C135.607 75.5244 135.742 75.3574 135.854 75.1523C135.971 74.9414 136.047 74.6777 136.082 74.3613H139.281C139.164 75.1172 138.947 75.75 138.631 76.2598C138.32 76.7695 137.919 77.1826 137.427 77.499C136.935 77.8096 136.36 78.0322 135.704 78.167C135.054 78.3076 134.327 78.3779 133.524 78.3779C132.698 78.3779 131.922 78.2725 131.195 78.0615C130.469 77.8506 129.83 77.5312 129.279 77.1035C128.734 76.6699 128.307 76.1279 127.996 75.4775C127.686 74.8213 127.53 74.042 127.53 73.1396C127.53 72.2783 127.677 71.5225 127.97 70.8721C128.263 70.2217 128.673 69.6797 129.2 69.2461C129.733 68.8066 130.36 68.4756 131.081 68.2529C131.808 68.0303 132.604 67.9189 133.472 67.9189C134.538 67.9189 135.455 68.0596 136.223 68.3408C136.99 68.6221 137.617 69.0146 138.104 69.5186C138.59 70.0225 138.947 70.6289 139.176 71.3379C139.404 72.0469 139.513 72.835 139.501 73.7021H132.549ZM133.85 70.292C133.439 70.292 133.135 70.4385 132.936 70.7314C132.742 71.0186 132.613 71.4961 132.549 72.1641H135.124C135.089 71.5898 134.966 71.1357 134.755 70.8018C134.544 70.4619 134.242 70.292 133.85 70.292ZM145.82 68.3145L145.671 70.7314H145.82C146.025 69.8057 146.365 69.1055 146.84 68.6309C147.32 68.1562 147.941 67.9189 148.703 67.9189C149.154 67.9189 149.541 67.9922 149.863 68.1387C150.191 68.2793 150.455 68.4697 150.654 68.71C150.854 68.9502 150.997 69.2285 151.085 69.5449C151.173 69.8555 151.217 70.1777 151.217 70.5117C151.217 70.7871 151.176 71.0596 151.094 71.3291C151.012 71.5986 150.88 71.8418 150.698 72.0586C150.517 72.2754 150.282 72.4512 149.995 72.5859C149.708 72.7148 149.354 72.7793 148.932 72.7793C148.346 72.7793 147.883 72.6299 147.543 72.3311C147.209 72.0322 147.042 71.6719 147.042 71.25C147.042 71.0449 147.065 70.8721 147.112 70.7314C147.159 70.585 147.206 70.4678 147.253 70.3799C147.306 70.2861 147.341 70.2188 147.358 70.1777C147.376 70.1367 147.355 70.1162 147.297 70.1162C147.174 70.1162 147.039 70.2568 146.893 70.5381C146.752 70.8193 146.682 71.2617 146.682 71.8652V73.8779C146.682 74.1885 146.734 74.4111 146.84 74.5459C146.951 74.6748 147.162 74.7393 147.473 74.7393H148V78H140.6V74.7393H141.118C141.358 74.7393 141.54 74.6631 141.663 74.5107C141.792 74.3525 141.856 74.165 141.856 73.9482V72.2783C141.856 72.0029 141.774 71.8184 141.61 71.7246C141.452 71.625 141.271 71.5752 141.065 71.5752H140.6V68.3145H145.82Z" fill="#333333"/>
</svg>
